<svg xmlns="http://www.w3.org/2000/svg" width="800" height="800" preserveAspectRatio="xMidYMid" viewBox="0 0 256 256"><path fill="#FF6C37" d="M254.95312 144.25307c8.95838-70.13136-40.56869-134.2478-110.57207-143.20619C74.37766-7.9115 10.00527 41.61557 1.04688 111.61895c-8.95838 70.00338 40.56869 134.2478 110.57207 143.33417 70.13136 8.95838 134.2478-40.56869 143.33417-110.70005Z"/><path fill="#FFF" d="m174.19967 82.18426-54.00626 54.00626-15.22926-15.22925c53.11043-53.11043 58.35748-48.50326 69.23552-38.77701Z"/><path fill="#FF6C37" d="M120.1934 137.4703c-.38392 0-.63988-.12798-.89583-.38394l-15.35723-15.22925c-.51191-.51191-.51191-1.27977 0-1.79168 54.00626-54.00627 59.63725-48.88719 71.0272-38.64903.25595.25595.38393.5119.38393.89583 0 .38394-.12798.63989-.38394.89584l-54.00626 53.8783c-.12798.25595-.5119.38392-.76786.38392Zm-13.43757-16.50903 13.43758 13.43758L172.28 82.31223c-9.47028-8.44647-15.86913-11.00601-65.52418 38.64904Z"/><path fill="#FFF" d="m135.67862 151.67573-14.71735-14.71734 54.00626-54.00627c14.4614 14.58937-7.1667 38.2651-39.28891 68.72361Z"/><path fill="#FF6C37" d="M135.67862 152.9555c-.38393 0-.63989-.12797-.89584-.38393l-14.71735-14.71735c-.25595-.25595-.25595-.5119-.25595-.89583 0-.38394.12797-.63989.38393-.89584l54.00626-54.00627c.51191-.5119 1.27977-.5119 1.79168 0 3.3274 3.07145 5.11908 7.42266 4.9911 11.90186-.25595 14.20544-16.38105 32.25018-44.28002 58.61343-.38393.25596-.76786.38393-1.02381.38393Zm-12.92567-15.99711c8.19052 8.3185 11.6459 11.6459 12.92567 12.92567 21.50012-20.47631 42.36036-41.46453 42.48834-55.92592.12798-3.3274-1.1518-6.6548-3.3274-9.21434l-52.08661 52.21459Z"/><path fill="#FFF" d="m105.2201 121.3452 10.87805 10.87804c.25595.25595.25595.5119 0 .76786-.12798.12798-.12798.12798-.25596.12798l-22.52394 4.86312c-1.1518.12798-2.1756-.63988-2.43156-1.79168-.12798-.63988.12798-1.27977.5119-1.6637l13.05365-13.05364c.25596-.25596.63989-.38393.76787-.12798Z"/><path fill="#FF6C37" d="M92.93432 139.26197c-1.91965 0-3.3274-1.53572-3.3274-3.45538 0-.89584.38393-1.79167 1.02382-2.43156l13.05364-13.05365c.76786-.63988 1.79168-.63988 2.55954 0l10.87804 10.87804c.76786.63989.76786 1.79168 0 2.55954-.25595.25596-.5119.38393-.89584.51191l-22.52394 4.86312c-.25595 0-.5119.12798-.76786.12798Zm11.90185-16.50902-12.54173 12.54174c-.25596.25595-.38394.63988-.12798 1.02381.12798.38393.5119.5119.89584.38393l21.1162-4.60717-9.34233-9.34231Z"/><path fill="#FFF" d="M202.73853 52.23766c-8.19052-7.93457-21.37215-7.67862-29.30672.63988-7.93457 8.3185-7.67862 21.37215.63989 29.30672 6.78277 6.52682 17.02093 7.67861 25.08347 2.81549l-14.58936-14.58937 18.17272-18.17272Z"/><path fill="#FF6C37" d="M188.40511 89.22299c-12.1578 0-22.01203-9.85422-22.01203-22.01203s9.85422-22.01204 22.01203-22.01204c5.63099 0 11.134 2.17561 15.22926 6.1429.25595.25595.38393.5119.38393.89584 0 .38393-.12798.63988-.38393.89583l-17.27689 17.27689 13.56556 13.56555c.5119.51191.5119 1.27977 0 1.79168l-.25596.25596c-3.3274 2.04763-7.29468 3.19942-11.26197 3.19942Zm0-41.33655c-10.75006 0-19.4525 8.70243-19.32451 19.4525 0 10.75006 8.70243 19.45249 19.45249 19.32451 2.94347 0 5.88694-.63988 8.57445-2.04763l-13.43757-13.3096c-.25596-.25596-.38394-.5119-.38394-.89584 0-.38393.12798-.63988.38394-.89584l17.1489-17.1489c-3.45537-2.94348-7.80659-4.4792-12.41376-4.4792Z"/><path fill="#FFF" d="m203.12246 52.62159-.25595-.25596-18.3007 18.04475 14.46139 14.4614c1.40774-.89585 2.8155-1.91966 3.96728-3.07145 8.19053-8.06255 8.19053-21.1162.12798-29.17874Z"/><path fill="#FF6C37" d="M199.15517 86.27952c-.38393 0-.63988-.12798-.89583-.38393l-14.58937-14.58937c-.25596-.25596-.38394-.5119-.38394-.89584 0-.38393.12798-.63988.38394-.89584l18.17272-18.17272c.5119-.51191 1.27977-.51191 1.79168 0l.38393.25595c8.57445 8.57446 8.57445 22.39596.12798 31.0984-1.27977 1.27976-2.68752 2.43156-4.22324 3.3274-.38393.12797-.63989.25595-.76787.25595Zm-12.79769-15.86914 12.92567 12.92567c1.02382-.63988 2.04763-1.53572 2.8155-2.30358 7.29468-7.29469 7.67861-19.19654.63988-26.87516l-16.38105 16.25307Z"/><path fill="#FFF" d="M176.37528 84.48784c-3.07145-3.07144-8.06255-3.07144-11.134 0l-48.2473 48.2473 8.06255 8.06255 51.0628-44.79192c3.3274-2.8155 3.58335-7.8066.76786-11.134-.25596-.12797-.38393-.25595-.5119-.38393Z"/><path fill="#FF6C37" d="M124.92855 142.07746c-.38393 0-.63988-.12797-.89584-.38393l-8.06254-8.06254c-.51191-.51191-.51191-1.27977 0-1.79168l48.2473-48.2473c3.58336-3.58336 9.34232-3.58336 12.92567 0 3.58336 3.58335 3.58336 9.34231 0 12.92566l-.38393.38394-51.0628 44.79192c-.12797.25596-.38393.38393-.76786.38393Zm-6.14289-9.34231 6.27087 6.27087 50.16696-44.02407c2.8155-2.30358 3.07145-6.52682.76786-9.34231-2.30358-2.8155-6.52682-3.07145-9.34232-.76787-.12797.12798-.25595.25596-.5119.38393l-47.35147 47.47945Z"/><path fill="#FFF" d="M80.00865 187.63725c-.5119.25596-.76786.76786-.63988 1.27977l2.1756 9.21434c.51191 1.27977-.25595 2.8155-1.6637 3.19942-1.02381.38393-2.1756 0-2.81549-.76786l-14.07746-13.94948 45.94372-45.94372 15.86914.25595 10.75006 10.75006c-2.55954 2.17561-18.04475 17.14891-55.54199 35.96152Z"/><path fill="#FF6C37" d="M78.98483 202.61055c-1.02381 0-2.04763-.38393-2.68751-1.15179l-13.94949-13.94949c-.25595-.25595-.38393-.5119-.38393-.89583s.12798-.63989.38393-.89584l45.94372-45.94372c.25596-.25596.63989-.38393.89584-.38393l15.86914.25595c.38393 0 .63989.12798.89584.38393l10.75006 10.75006c.25596.25596.38393.63989.38393 1.02382s-.12797.63988-.5119.89584l-.89584.76786c-13.56556 11.90185-31.99424 23.80371-54.9021 35.19366l2.1756 9.08636c.38393 1.6637-.38393 3.45538-1.91965 4.35121-.76787.38394-1.40775.51191-2.04764.51191Zm-14.07746-15.99711L78.089 199.66708c.38393.63989 1.15179.89584 1.79167.51191.63989-.38393.89584-1.1518.51191-1.79168l-2.1756-9.21434c-.25596-1.15179.25595-2.1756 1.27976-2.68751 22.65192-11.38995 40.95262-23.16383 54.3902-34.80973l-9.4703-9.47029-14.71734-.25595-44.79193 44.66395Z"/><path fill="#FFF" d="m52.10968 197.61945 11.00601-11.00601 16.38105 16.38104-26.1073-1.79167c-1.15178-.12798-1.91965-1.1518-1.79167-2.30359 0-.5119.12798-1.02381.5119-1.27977Z"/><path fill="#FF6C37" d="m79.49674 204.14628-26.23527-1.79168c-1.91965-.12798-3.19942-1.79168-3.07145-3.71133.12798-.76786.38393-1.53572 1.02382-2.04763l11.00602-11.00602c.5119-.5119 1.27977-.5119 1.79167 0l16.38105 16.38105c.38393.38393.5119.89584.25595 1.40774-.25595.51191-.63988.76787-1.15179.76787ZM63.1157 188.4051 53.00552 198.5153c-.38393.25596-.38393.89584 0 1.1518.12797.12797.25595.25595.5119.25595l22.65192 1.53572-13.05365-13.05365ZM104.45224 146.55666c-.76786 0-1.27977-.63989-1.27977-1.27977 0-.38393.12798-.63989.38394-.89584l12.41376-12.41376c.5119-.51191 1.27977-.51191 1.79168 0l8.06254 8.06254c.38393.38393.51191.76786.38393 1.27977-.12797.38393-.5119.76786-1.02381.89584l-20.47631 4.35122h-.25596Zm12.41377-11.90186-8.44648 8.44648 13.8215-2.94347-5.37502-5.503Z"/><path fill="#FFF" d="m124.80058 140.92567-14.07747 3.07145c-1.02381.25595-2.04763-.38393-2.30358-1.40775-.12798-.63988 0-1.27977.5119-1.79168l7.8066-7.80659 8.06255 7.93457Z"/><path fill="#FF6C37" d="M110.46716 145.27689c-1.79168 0-3.19942-1.40775-3.19942-3.19943 0-.89584.38393-1.6637.89584-2.30358l7.80659-7.8066c.5119-.5119 1.27977-.5119 1.79168 0l8.06254 8.06255c.38393.38393.51191.76786.38393 1.27977-.12797.38393-.5119.76786-1.02381.89584l-14.07747 3.07145h-.63988Zm6.39885-10.62209-6.91076 6.91076c-.25595.25595-.25595.5119-.12797.76786.12797.25595.38393.38393.76786.38393l11.77387-2.55954-5.503-5.503ZM203.25044 64.90737c-.25596-.76786-1.1518-1.1518-1.91966-.89584-.76786.25596-1.15179 1.1518-.89584 1.91966 0 .12797.12798.25595.12798.38393.76786 1.53572.5119 3.45538-.5119 4.86312-.51191.63989-.38394 1.53572.12797 2.04763.63988.51191 1.53572.38393 2.04763-.25595 1.91966-2.43156 2.30359-5.50301 1.02382-8.06255Z"/></svg>